<svg width="512" height="512" viewBox="0 0 512 512" fill="none" xmlns="http://www.w3.org/2000/svg">
<g clip-path="url(#clip0_156_68)">
<rect width="512" height="512" rx="40" fill="#5A5766"/>
<rect width="544.558" height="38.9169" transform="matrix(0.742913 -0.669388 0.710008 0.704194 123.81 214.52)" fill="#4E4B58"/>
<rect width="542.591" height="38.9169" transform="matrix(0.742913 -0.669388 0.710008 0.704194 -44 634.705)" fill="#4E4B58"/>
<rect width="125.428" height="38.9169" transform="matrix(0.742913 -0.669388 0.710008 0.704194 194.86 284.991)" fill="#4E4B58"/>
<path d="M222.492 312.396L123.809 214.521L152.799 188.4L222.492 260.093L222.492 312.396Z" fill="#61E786"/>
<path d="M124.867 213.586L228.402 120.298L228.402 172.668L152.498 240.991L124.867 213.586Z" fill="#61E786"/>
<path d="M357.737 325.027L288.043 253.344L288.043 201.031L386.727 298.906L357.737 325.027Z" fill="#9792E3"/>
<path d="M282.189 340.812L358.093 272.838L385.725 300.243L282.189 393.531L282.189 340.812Z" fill="#9792E3"/>
</g>
<defs>
<clipPath id="clip0_156_68">
<rect width="512" height="512" rx="40" fill="white"/>
</clipPath>
</defs>
</svg>
